<svg width="215" height="41" viewBox="0 0 215 41" fill="none" xmlns="http://www.w3.org/2000/svg">
<path fill-rule="evenodd" clip-rule="evenodd" d="M17.4528 3.16456C16.9127 2.71155 16.1216 2.72461 15.5968 3.1952L3.30431 14.216C3.00459 14.4847 2.83333 14.8683 2.83333 15.2708V17.5003H0V15.2708C0 14.0632 0.51376 12.9125 1.41293 12.1064L13.7054 1.08558C15.28 -0.326189 17.6531 -0.365352 19.2735 0.993689L25.5 6.21588V3.33346C25.5 2.55105 26.1343 1.91679 26.9167 1.91679C27.6991 1.91679 28.3333 2.55105 28.3333 3.33346V8.59222L32.4811 12.071C33.4439 12.8785 34 14.0707 34 15.3273V34.5002C34 36.8474 32.0972 38.7502 29.75 38.7502H21.25V35.9168H29.75C30.5324 35.9168 31.1667 35.2826 31.1667 34.5002V15.3273C31.1667 14.9084 30.9813 14.511 30.6604 14.2419L17.4528 3.16456Z" fill="#4474B4"/>
<path fill-rule="evenodd" clip-rule="evenodd" d="M0.212402 23.4708V20.5469C4.9644 20.5899 9.51287 22.5029 12.8689 25.8755C16.2458 29.2319 18.1606 33.7825 18.2033 38.5378H15.2794C15.232 34.5608 13.6252 30.7577 10.8 27.9503C7.99269 25.1247 4.1895 23.5179 0.212402 23.4708ZM0.212402 30.1688V27.2444C3.18935 27.2906 6.03503 28.4975 8.13911 30.6118C10.2533 32.716 11.4594 35.5609 11.5057 38.5378H8.58134C8.53098 36.3376 7.63167 34.2387 6.06692 32.6833C4.51179 31.1182 2.41269 30.2188 0.212402 30.1688ZM0.212402 38.5378V33.9447C2.69995 34.0529 4.69735 36.0503 4.80548 38.5378H0.212402Z" fill="#C62338"/>
<path d="M56.694 34V23.808L48.462 10.9H52.886L58.514 20.042L64.156 10.9H68.58L60.348 23.808V34H56.694ZM76.5084 34.448C74.959 34.448 73.559 34.126 72.3084 33.482C71.067 32.838 70.0824 31.942 69.3544 30.794C68.6264 29.646 68.2624 28.3253 68.2624 26.832C68.2624 25.3293 68.6264 24.0087 69.3544 22.87C70.0824 21.722 71.067 20.826 72.3084 20.182C73.5497 19.538 74.9497 19.216 76.5084 19.216C78.0577 19.216 79.453 19.538 80.6944 20.182C81.945 20.826 82.9297 21.722 83.6484 22.87C84.3764 24.0087 84.7404 25.3293 84.7404 26.832C84.7404 28.3253 84.3764 29.646 83.6484 30.794C82.9297 31.942 81.945 32.838 80.6944 33.482C79.453 34.126 78.0577 34.448 76.5084 34.448ZM76.5084 31.452C77.3857 31.452 78.1697 31.256 78.8604 30.864C79.5604 30.4627 80.111 29.9167 80.5124 29.226C80.9137 28.526 81.1144 27.728 81.1144 26.832C81.1144 25.9267 80.9137 25.1287 80.5124 24.438C80.111 23.738 79.5604 23.192 78.8604 22.8C78.1697 22.408 77.3857 22.212 76.5084 22.212C75.6404 22.212 74.8564 22.408 74.1564 22.8C73.4564 23.192 72.9057 23.738 72.5044 24.438C72.103 25.1287 71.9024 25.9267 71.9024 26.832C71.9024 27.728 72.103 28.526 72.5044 29.226C72.9057 29.9167 73.4564 30.4627 74.1564 30.864C74.8564 31.256 75.6404 31.452 76.5084 31.452ZM89.1878 34V9.92H92.6738V34H89.1878ZM105.397 34.448C103.847 34.448 102.447 34.126 101.197 33.482C99.9552 32.838 98.9705 31.942 98.2425 30.794C97.5145 29.646 97.1505 28.3253 97.1505 26.832C97.1505 25.3293 97.5145 24.0087 98.2425 22.87C98.9705 21.722 99.9552 20.826 101.197 20.182C102.438 19.538 103.838 19.216 105.397 19.216C106.946 19.216 108.341 19.538 109.583 20.182C110.833 20.826 111.818 21.722 112.537 22.87C113.265 24.0087 113.629 25.3293 113.629 26.832C113.629 28.3253 113.265 29.646 112.537 30.794C111.818 31.942 110.833 32.838 109.583 33.482C108.341 34.126 106.946 34.448 105.397 34.448ZM105.397 31.452C106.274 31.452 107.058 31.256 107.749 30.864C108.449 30.4627 108.999 29.9167 109.401 29.226C109.802 28.526 110.003 27.728 110.003 26.832C110.003 25.9267 109.802 25.1287 109.401 24.438C108.999 23.738 108.449 23.192 107.749 22.8C107.058 22.408 106.274 22.212 105.397 22.212C104.529 22.212 103.745 22.408 103.045 22.8C102.345 23.192 101.794 23.738 101.393 24.438C100.991 25.1287 100.791 25.9267 100.791 26.832C100.791 27.728 100.991 28.526 101.393 29.226C101.794 29.9167 102.345 30.4627 103.045 30.864C103.745 31.256 104.529 31.452 105.397 31.452Z" fill="black"/>
<path opacity="0.5" d="M126.374 34V10.9H130.042V20.812H140.108V10.9H143.762V34H140.108V24.032H130.042V34H126.374ZM157.169 34.448C155.619 34.448 154.219 34.126 152.969 33.482C151.727 32.838 150.743 31.942 150.015 30.794C149.287 29.646 148.923 28.3253 148.923 26.832C148.923 25.3293 149.287 24.0087 150.015 22.87C150.743 21.722 151.727 20.826 152.969 20.182C154.21 19.538 155.61 19.216 157.169 19.216C158.718 19.216 160.113 19.538 161.355 20.182C162.605 20.826 163.59 21.722 164.309 22.87C165.037 24.0087 165.401 25.3293 165.401 26.832C165.401 28.3253 165.037 29.646 164.309 30.794C163.59 31.942 162.605 32.838 161.355 33.482C160.113 34.126 158.718 34.448 157.169 34.448ZM157.169 31.452C158.046 31.452 158.83 31.256 159.521 30.864C160.221 30.4627 160.771 29.9167 161.173 29.226C161.574 28.526 161.775 27.728 161.775 26.832C161.775 25.9267 161.574 25.1287 161.173 24.438C160.771 23.738 160.221 23.192 159.521 22.8C158.83 22.408 158.046 22.212 157.169 22.212C156.301 22.212 155.517 22.408 154.817 22.8C154.117 23.192 153.566 23.738 153.165 24.438C152.763 25.1287 152.563 25.9267 152.563 26.832C152.563 27.728 152.763 28.526 153.165 29.226C153.566 29.9167 154.117 30.4627 154.817 30.864C155.517 31.256 156.301 31.452 157.169 31.452ZM169.848 34V19.664H173.334V21.386C173.997 20.6487 174.692 20.1027 175.42 19.748C176.157 19.3933 176.965 19.216 177.842 19.216C178.971 19.216 179.975 19.4727 180.852 19.986C181.739 20.4993 182.364 21.19 182.728 22.058C183.372 21.1433 184.105 20.4433 184.926 19.958C185.747 19.4633 186.699 19.216 187.782 19.216C188.809 19.216 189.719 19.4307 190.512 19.86C191.315 20.28 191.945 20.8867 192.402 21.68C192.869 22.464 193.102 23.4113 193.102 24.522V34H189.616V25.474C189.616 24.41 189.336 23.57 188.776 22.954C188.225 22.3287 187.483 22.016 186.55 22.016C185.915 22.016 185.346 22.1513 184.842 22.422C184.338 22.6927 183.941 23.052 183.652 23.5C183.363 23.948 183.218 24.4287 183.218 24.942V34H179.732V25.334C179.732 24.326 179.461 23.5233 178.92 22.926C178.379 22.3193 177.641 22.016 176.708 22.016C176.064 22.016 175.485 22.1513 174.972 22.422C174.468 22.6927 174.067 23.052 173.768 23.5C173.479 23.9387 173.334 24.4147 173.334 24.928V34H169.848ZM205.37 34.448C203.839 34.448 202.467 34.1167 201.254 33.454C200.05 32.7913 199.093 31.886 198.384 30.738C197.684 29.59 197.334 28.2973 197.334 26.86C197.334 25.796 197.535 24.802 197.936 23.878C198.337 22.954 198.893 22.142 199.602 21.442C200.311 20.742 201.137 20.196 202.08 19.804C203.023 19.412 204.04 19.216 205.132 19.216C206.625 19.216 207.932 19.524 209.052 20.14C210.181 20.756 211.059 21.6147 211.684 22.716C212.319 23.8173 212.636 25.1007 212.636 26.566C212.636 26.6873 212.631 26.79 212.622 26.874C212.613 26.9487 212.594 27.0793 212.566 27.266H200.89C200.89 28.134 201.086 28.8993 201.478 29.562C201.87 30.2153 202.416 30.7287 203.116 31.102C203.825 31.466 204.637 31.648 205.552 31.648C206.42 31.648 207.19 31.4753 207.862 31.13C208.543 30.7753 209.159 30.2387 209.71 29.52L212.244 30.822C211.563 31.9607 210.615 32.852 209.402 33.496C208.198 34.1307 206.854 34.448 205.37 34.448ZM201.044 25.082H209.178C209.057 24.4287 208.809 23.864 208.436 23.388C208.063 22.912 207.591 22.5433 207.022 22.282C206.453 22.0113 205.818 21.876 205.118 21.876C204.381 21.876 203.723 22.0067 203.144 22.268C202.565 22.5293 202.094 22.898 201.73 23.374C201.366 23.85 201.137 24.4193 201.044 25.082Z" fill="black"/>
</svg>
